<?xml version="1.0" standalone="no"?>
<!DOCTYPE svg PUBLIC "-//W3C//DTD SVG 20010904//EN"
 "http://www.w3.org/TR/2001/REC-SVG-20010904/DTD/svg10.dtd">
<svg version="1.0" xmlns="http://www.w3.org/2000/svg"
 width="161.000000pt" height="161.000000pt" viewBox="0 0 161.000000 161.000000"
 preserveAspectRatio="xMidYMid meet">
<metadata>
Created by potrace 1.14, written by Peter Selinger 2001-2017
</metadata>
<g transform="translate(0.000000,161.000000) scale(0.100000,-0.100000)"
fill="#000000" stroke="none">
<path d="M824 1124 c-20 -20 -61 -46 -96 -61 -88 -35 -128 -67 -128 -102 0
-36 54 -111 80 -111 23 0 24 3 8 47 -11 29 -10 35 11 56 25 28 121 83 121 70
0 -12 19 -134 25 -159 4 -17 -8 -31 -53 -66 -152 -121 -252 -224 -252 -263 0
-29 38 -77 57 -73 9 2 17 16 18 34 1 18 16 52 33 77 39 55 203 210 212 200 4
-5 15 -42 25 -83 21 -90 51 -169 72 -192 24 -27 66 -22 119 15 55 38 69 67 32
67 -13 0 -29 -4 -37 -9 -8 -5 -20 -7 -28 -4 -23 9 -61 85 -87 177 l-26 89 22
16 c68 47 193 154 214 182 28 38 30 56 8 87 -22 31 -49 27 -73 -11 -11 -18
-32 -39 -46 -47 -29 -15 -32 -28 -9 -44 13 -10 5 -19 -51 -59 -36 -26 -70 -45
-74 -42 -16 9 -25 164 -11 180 7 8 10 26 6 40 -10 38 -51 33 -92 -11z"/>
<path d="M541 1137 c-17 -21 -61 -27 -99 -14 -29 10 -36 9 -46 -4 -7 -11 -45
-22 -111 -32 -139 -22 -214 -47 -237 -78 -16 -22 -18 -31 -9 -71 14 -62 48
-118 72 -118 23 0 23 3 2 62 -16 45 -16 48 1 67 10 11 39 27 65 35 49 16 162
38 168 33 1 -2 -23 -74 -55 -160 -41 -112 -62 -157 -73 -157 -24 0 -41 -47
-47 -126 -4 -71 -4 -71 23 -78 41 -10 63 1 70 37 26 118 147 481 165 492 4 2
50 10 103 16 120 15 123 17 111 66 -8 36 -12 38 -50 41 -26 2 -45 -2 -53 -11z"/>
<path d="M1330 821 c0 -6 -29 -24 -64 -40 -85 -41 -94 -52 -73 -96 9 -19 24
-35 32 -35 13 0 14 4 5 21 -7 11 -9 27 -6 34 4 12 75 55 90 55 8 0 -13 -63
-24 -70 -6 -4 -8 -13 -5 -21 7 -18 -22 -89 -41 -104 -21 -15 -23 -68 -2 -73
15 -3 21 8 64 128 4 12 10 10 25 -10 133 -166 156 -185 189 -155 25 23 26 38
1 30 -24 -7 -69 31 -134 114 l-47 60 35 -6 c30 -5 39 -1 65 27 42 45 47 72 18
110 -21 29 -26 31 -65 26 -26 -3 -43 -2 -43 4 0 6 -4 10 -10 10 -5 0 -10 -4
-10 -9z m105 -42 c19 -30 -39 -109 -80 -109 -28 0 -31 13 -14 71 7 21 19 40
28 42 31 9 60 7 66 -4z"/>
</g>
</svg>
